<?xml version="1.0" encoding="utf-8"?>
<!-- Generator: Adobe Illustrator 27.0.1, SVG Export Plug-In . SVG Version: 6.00 Build 0)  -->
<svg version="1.1" id="Capa_1" xmlns="http://www.w3.org/2000/svg" xmlns:xlink="http://www.w3.org/1999/xlink" x="0px" y="0px"
	 viewBox="0 0 1626 876" style="enable-background:new 0 0 1626 876;" xml:space="preserve">
<style type="text/css">
	.st0{fill:#681AFF;}
	.st1{fill:#FFFFFF;}
</style>
<rect class="st0" width="1626" height="876"/>
<g>
	<path class="st1" d="M504.6,535.8c46.4-21.2,83.7-52.9,111.9-95s42.3-87.8,42.3-137.2c0-72.6-25.8-134.5-77.3-185.9
		S467.4,40.7,393.9,40.7H75.5v794.7h156.9V558.7h118.3l161.1,276.7h168.7L504.6,535.8z M470,387c-21.2,23-46.6,34.7-76.1,34.7H232.4
		v-235h161.5c29.6,0,55,11.3,76.1,34.1c21.2,22.7,31.8,50.3,31.8,82.8C501.8,336.2,491.2,364,470,387z"/>
	<g>
		<path class="st1" d="M1394.8,536.7v298.6h155.1V281.5L1394.8,536.7z"/>
		<polygon class="st1" points="1550.5,40.7 1549.9,41.7 1544.6,50.4 1250,535.1 1161.8,680.1 1073.6,535.1 929.4,297.7 929.4,835.3 
			772.4,835.3 772.4,40.7 949.4,40.7 1161.8,390 1374.1,40.7 		"/>
	</g>
</g>
</svg>
